<?xml version="1.0" encoding="utf-8"?>
<!-- Generator: Adobe Illustrator 19.1.0, SVG Export Plug-In . SVG Version: 6.00 Build 0)  -->
<svg version="1.1" id="Layer_1" xmlns="http://www.w3.org/2000/svg" xmlns:xlink="http://www.w3.org/1999/xlink" x="0px" y="0px"
	 viewBox="0 0 512 512" style="enable-background:new 0 0 512 512;" xml:space="preserve">
<style type="text/css">
	.st0{fill:#FFFFFF;}
</style>
<g>
	<path class="st0" d="M83,261.3l184.7,0.6l-0.8,185.2l-68.5-67.3c-5.5-5.5-14.7-4.1-18.3,2.8l-11.2,21.9
		c-9.6,18.8-34.7,22.8-49.7,7.9l0,0c-14.8-14.8-11-39.7,7.5-49.5l20.1-10.6c6.7-3.5,8.2-12.5,3-18.1L83,261.3z"/>
	<path class="st0" d="M267.7,74.5v187.4l-185.6-0.1l67-69.9c5.5-5.5,4.1-14.7-2.8-18.3l-21.9-11.2c-18.8-9.6-22.8-34.7-7.9-49.7l0,0
		c14.8-14.8,39.7-11,49.5,7.5l10.6,20.1c3.5,6.7,12.5,8.2,18.1,3L267.7,74.5z"/>
	<g>
		<g>
			<path class="st0" d="M337,379.5c5.5-5.5,4.1-14.8-2.8-18.4l-22-11.2c-18.9-9.6-22.9-34.9-7.9-49.9l0,0
				c14.9-14.9,39.9-11.1,49.7,7.6l10.6,20.2c3.6,6.8,12.6,8.3,18.1,3l72.3-68.1c0.2-0.4,0.3-0.9,0.3-1.3l-69.2-69.2
				c-5.5-5.5-14.7-4.1-18.3,2.8l-11.2,21.9c-9.6,18.8-34.8,22.8-49.7,7.9l0,0c-14.8-14.8-11-39.8,7.5-49.5l20.1-10.6
				c6.7-3.5,8.2-12.5,3-18.1l-67.9-72c-1.1-0.7-2.7-0.6-3.7,0.4L81.8,259.3c-1.1,1.1-1.1,3,0,4.1l184.3,184.3
				c0.5,0.5,1.2,0.8,1.9,0.8L337,379.5z"/>
		</g>
	</g>
</g>
</svg>
